<?xml version="1.0" encoding="UTF-8" standalone="no"?>
<!-- Created with Inkscape (http://www.inkscape.org/) -->

<svg
   version="1.1"
   id="svg2"
   xml:space="preserve"
   width="1545.1733"
   height="850.26801"
   viewBox="0 0 1545.1733 850.26801"
   sodipodi:docname="Logo-01.ai"
   xmlns:inkscape="http://www.inkscape.org/namespaces/inkscape"
   xmlns:sodipodi="http://sodipodi.sourceforge.net/DTD/sodipodi-0.dtd"
   xmlns="http://www.w3.org/2000/svg"
   xmlns:svg="http://www.w3.org/2000/svg"><defs
     id="defs6"><linearGradient
       x1="0"
       y1="0"
       x2="1"
       y2="0"
       gradientUnits="userSpaceOnUse"
       gradientTransform="matrix(2051.0076,0,0,-2051.0076,-181.75237,362.23337)"
       spreadMethod="pad"
       id="linearGradient40"><stop
         style="stop-opacity:1;stop-color:#ffd870"
         offset="0"
         id="stop22" /><stop
         style="stop-opacity:1;stop-color:#ad782a"
         offset="0.07798464"
         id="stop24" /><stop
         style="stop-opacity:1;stop-color:#ad782a"
         offset="0.182927"
         id="stop26" /><stop
         style="stop-opacity:1;stop-color:#f3cb6e"
         offset="0.42886127"
         id="stop28" /><stop
         style="stop-opacity:1;stop-color:#f3cb6e"
         offset="0.490244"
         id="stop30" /><stop
         style="stop-opacity:1;stop-color:#f3cb6e"
         offset="0.58449248"
         id="stop32" /><stop
         style="stop-opacity:1;stop-color:#ad782a"
         offset="0.778049"
         id="stop34" /><stop
         style="stop-opacity:1;stop-color:#ad782a"
         offset="0.86984636"
         id="stop36" /><stop
         style="stop-opacity:1;stop-color:#ffd870"
         offset="1"
         id="stop38" /></linearGradient><linearGradient
       x1="0"
       y1="0"
       x2="1"
       y2="0"
       gradientUnits="userSpaceOnUse"
       gradientTransform="matrix(2815.9214,0,0,-2815.9214,-463.0231,74.474388)"
       spreadMethod="pad"
       id="linearGradient74"><stop
         style="stop-opacity:1;stop-color:#ffd870"
         offset="0"
         id="stop56" /><stop
         style="stop-opacity:1;stop-color:#ad782a"
         offset="0.07798464"
         id="stop58" /><stop
         style="stop-opacity:1;stop-color:#ad782a"
         offset="0.182927"
         id="stop60" /><stop
         style="stop-opacity:1;stop-color:#f3cb6e"
         offset="0.42886127"
         id="stop62" /><stop
         style="stop-opacity:1;stop-color:#f3cb6e"
         offset="0.490244"
         id="stop64" /><stop
         style="stop-opacity:1;stop-color:#f3cb6e"
         offset="0.58449248"
         id="stop66" /><stop
         style="stop-opacity:1;stop-color:#ad782a"
         offset="0.778049"
         id="stop68" /><stop
         style="stop-opacity:1;stop-color:#ad782a"
         offset="0.86984636"
         id="stop70" /><stop
         style="stop-opacity:1;stop-color:#ffd870"
         offset="1"
         id="stop72" /></linearGradient><linearGradient
       x1="0"
       y1="0"
       x2="1"
       y2="0"
       gradientUnits="userSpaceOnUse"
       gradientTransform="matrix(2815.8889,0,0,-2815.8889,-463.01163,74.347038)"
       spreadMethod="pad"
       id="linearGradient108"><stop
         style="stop-opacity:1;stop-color:#ffd870"
         offset="0"
         id="stop90" /><stop
         style="stop-opacity:1;stop-color:#ad782a"
         offset="0.07798464"
         id="stop92" /><stop
         style="stop-opacity:1;stop-color:#ad782a"
         offset="0.182927"
         id="stop94" /><stop
         style="stop-opacity:1;stop-color:#f3cb6e"
         offset="0.42886127"
         id="stop96" /><stop
         style="stop-opacity:1;stop-color:#f3cb6e"
         offset="0.490244"
         id="stop98" /><stop
         style="stop-opacity:1;stop-color:#f3cb6e"
         offset="0.58449248"
         id="stop100" /><stop
         style="stop-opacity:1;stop-color:#ad782a"
         offset="0.778049"
         id="stop102" /><stop
         style="stop-opacity:1;stop-color:#ad782a"
         offset="0.86984636"
         id="stop104" /><stop
         style="stop-opacity:1;stop-color:#ffd870"
         offset="1"
         id="stop106" /></linearGradient><linearGradient
       x1="0"
       y1="0"
       x2="1"
       y2="0"
       gradientUnits="userSpaceOnUse"
       gradientTransform="matrix(2815.8245,0,0,-2815.8245,-462.99026,73.812004)"
       spreadMethod="pad"
       id="linearGradient142"><stop
         style="stop-opacity:1;stop-color:#ffd870"
         offset="0"
         id="stop124" /><stop
         style="stop-opacity:1;stop-color:#ad782a"
         offset="0.07798464"
         id="stop126" /><stop
         style="stop-opacity:1;stop-color:#ad782a"
         offset="0.182927"
         id="stop128" /><stop
         style="stop-opacity:1;stop-color:#f3cb6e"
         offset="0.42886127"
         id="stop130" /><stop
         style="stop-opacity:1;stop-color:#f3cb6e"
         offset="0.490244"
         id="stop132" /><stop
         style="stop-opacity:1;stop-color:#f3cb6e"
         offset="0.58449248"
         id="stop134" /><stop
         style="stop-opacity:1;stop-color:#ad782a"
         offset="0.778049"
         id="stop136" /><stop
         style="stop-opacity:1;stop-color:#ad782a"
         offset="0.86984636"
         id="stop138" /><stop
         style="stop-opacity:1;stop-color:#ffd870"
         offset="1"
         id="stop140" /></linearGradient><linearGradient
       x1="0"
       y1="0"
       x2="1"
       y2="0"
       gradientUnits="userSpaceOnUse"
       gradientTransform="matrix(2815.9163,0,0,-2815.9163,-463.02216,73.953377)"
       spreadMethod="pad"
       id="linearGradient176"><stop
         style="stop-opacity:1;stop-color:#ffd870"
         offset="0"
         id="stop158" /><stop
         style="stop-opacity:1;stop-color:#ad782a"
         offset="0.07798464"
         id="stop160" /><stop
         style="stop-opacity:1;stop-color:#ad782a"
         offset="0.182927"
         id="stop162" /><stop
         style="stop-opacity:1;stop-color:#f3cb6e"
         offset="0.42886127"
         id="stop164" /><stop
         style="stop-opacity:1;stop-color:#f3cb6e"
         offset="0.490244"
         id="stop166" /><stop
         style="stop-opacity:1;stop-color:#f3cb6e"
         offset="0.58449248"
         id="stop168" /><stop
         style="stop-opacity:1;stop-color:#ad782a"
         offset="0.778049"
         id="stop170" /><stop
         style="stop-opacity:1;stop-color:#ad782a"
         offset="0.86984636"
         id="stop172" /><stop
         style="stop-opacity:1;stop-color:#ffd870"
         offset="1"
         id="stop174" /></linearGradient><linearGradient
       x1="0"
       y1="0"
       x2="1"
       y2="0"
       gradientUnits="userSpaceOnUse"
       gradientTransform="matrix(2815.9285,0,0,-2815.9285,-463.02844,74.384323)"
       spreadMethod="pad"
       id="linearGradient210"><stop
         style="stop-opacity:1;stop-color:#ffd870"
         offset="0"
         id="stop192" /><stop
         style="stop-opacity:1;stop-color:#ad782a"
         offset="0.07798464"
         id="stop194" /><stop
         style="stop-opacity:1;stop-color:#ad782a"
         offset="0.182927"
         id="stop196" /><stop
         style="stop-opacity:1;stop-color:#f3cb6e"
         offset="0.42886127"
         id="stop198" /><stop
         style="stop-opacity:1;stop-color:#f3cb6e"
         offset="0.490244"
         id="stop200" /><stop
         style="stop-opacity:1;stop-color:#f3cb6e"
         offset="0.58449248"
         id="stop202" /><stop
         style="stop-opacity:1;stop-color:#ad782a"
         offset="0.778049"
         id="stop204" /><stop
         style="stop-opacity:1;stop-color:#ad782a"
         offset="0.86984636"
         id="stop206" /><stop
         style="stop-opacity:1;stop-color:#ffd870"
         offset="1"
         id="stop208" /></linearGradient><linearGradient
       x1="0"
       y1="0"
       x2="1"
       y2="0"
       gradientUnits="userSpaceOnUse"
       gradientTransform="matrix(2815.8982,0,0,-2815.8982,-463.01556,74.32943)"
       spreadMethod="pad"
       id="linearGradient244"><stop
         style="stop-opacity:1;stop-color:#ffd870"
         offset="0"
         id="stop226" /><stop
         style="stop-opacity:1;stop-color:#ad782a"
         offset="0.07798464"
         id="stop228" /><stop
         style="stop-opacity:1;stop-color:#ad782a"
         offset="0.182927"
         id="stop230" /><stop
         style="stop-opacity:1;stop-color:#f3cb6e"
         offset="0.42886127"
         id="stop232" /><stop
         style="stop-opacity:1;stop-color:#f3cb6e"
         offset="0.490244"
         id="stop234" /><stop
         style="stop-opacity:1;stop-color:#f3cb6e"
         offset="0.58449248"
         id="stop236" /><stop
         style="stop-opacity:1;stop-color:#ad782a"
         offset="0.778049"
         id="stop238" /><stop
         style="stop-opacity:1;stop-color:#ad782a"
         offset="0.86984636"
         id="stop240" /><stop
         style="stop-opacity:1;stop-color:#ffd870"
         offset="1"
         id="stop242" /></linearGradient><linearGradient
       x1="0"
       y1="0"
       x2="1"
       y2="0"
       gradientUnits="userSpaceOnUse"
       gradientTransform="matrix(2815.9956,0,0,-2815.9956,-463.05643,74.61248)"
       spreadMethod="pad"
       id="linearGradient278"><stop
         style="stop-opacity:1;stop-color:#ffd870"
         offset="0"
         id="stop260" /><stop
         style="stop-opacity:1;stop-color:#ad782a"
         offset="0.07798464"
         id="stop262" /><stop
         style="stop-opacity:1;stop-color:#ad782a"
         offset="0.182927"
         id="stop264" /><stop
         style="stop-opacity:1;stop-color:#f3cb6e"
         offset="0.42886127"
         id="stop266" /><stop
         style="stop-opacity:1;stop-color:#f3cb6e"
         offset="0.490244"
         id="stop268" /><stop
         style="stop-opacity:1;stop-color:#f3cb6e"
         offset="0.58449248"
         id="stop270" /><stop
         style="stop-opacity:1;stop-color:#ad782a"
         offset="0.778049"
         id="stop272" /><stop
         style="stop-opacity:1;stop-color:#ad782a"
         offset="0.86984636"
         id="stop274" /><stop
         style="stop-opacity:1;stop-color:#ffd870"
         offset="1"
         id="stop276" /></linearGradient><linearGradient
       x1="0"
       y1="0"
       x2="1"
       y2="0"
       gradientUnits="userSpaceOnUse"
       gradientTransform="matrix(2815.7874,0,0,-2815.7874,-462.97339,74.237595)"
       spreadMethod="pad"
       id="linearGradient312"><stop
         style="stop-opacity:1;stop-color:#ffd870"
         offset="0"
         id="stop294" /><stop
         style="stop-opacity:1;stop-color:#ad782a"
         offset="0.07798464"
         id="stop296" /><stop
         style="stop-opacity:1;stop-color:#ad782a"
         offset="0.182927"
         id="stop298" /><stop
         style="stop-opacity:1;stop-color:#f3cb6e"
         offset="0.42886127"
         id="stop300" /><stop
         style="stop-opacity:1;stop-color:#f3cb6e"
         offset="0.490244"
         id="stop302" /><stop
         style="stop-opacity:1;stop-color:#f3cb6e"
         offset="0.58449248"
         id="stop304" /><stop
         style="stop-opacity:1;stop-color:#ad782a"
         offset="0.778049"
         id="stop306" /><stop
         style="stop-opacity:1;stop-color:#ad782a"
         offset="0.86984636"
         id="stop308" /><stop
         style="stop-opacity:1;stop-color:#ffd870"
         offset="1"
         id="stop310" /></linearGradient><linearGradient
       x1="0"
       y1="0"
       x2="1"
       y2="0"
       gradientUnits="userSpaceOnUse"
       gradientTransform="matrix(2050.9985,0,0,-2050.9985,-181.74968,146.10419)"
       spreadMethod="pad"
       id="linearGradient346"><stop
         style="stop-opacity:1;stop-color:#ffd870"
         offset="0"
         id="stop328" /><stop
         style="stop-opacity:1;stop-color:#ad782a"
         offset="0.07798464"
         id="stop330" /><stop
         style="stop-opacity:1;stop-color:#ad782a"
         offset="0.182927"
         id="stop332" /><stop
         style="stop-opacity:1;stop-color:#f3cb6e"
         offset="0.42886127"
         id="stop334" /><stop
         style="stop-opacity:1;stop-color:#f3cb6e"
         offset="0.490244"
         id="stop336" /><stop
         style="stop-opacity:1;stop-color:#f3cb6e"
         offset="0.58449248"
         id="stop338" /><stop
         style="stop-opacity:1;stop-color:#ad782a"
         offset="0.778049"
         id="stop340" /><stop
         style="stop-opacity:1;stop-color:#ad782a"
         offset="0.86984636"
         id="stop342" /><stop
         style="stop-opacity:1;stop-color:#ffd870"
         offset="1"
         id="stop344" /></linearGradient></defs><sodipodi:namedview
     id="namedview4"
     pagecolor="#ffffff"
     bordercolor="#666666"
     borderopacity="1.0"
     inkscape:pageshadow="2"
     inkscape:pageopacity="0.0"
     inkscape:pagecheckerboard="0" /><g
     id="g8"
     inkscape:groupmode="layer"
     inkscape:label="Logo-01"
     transform="matrix(1.3333333,0,0,-1.3333333,0,850.268)"><g
       id="g10"><g
         id="g12"><g
           id="g18"><g
             id="g20"><path
               d="m 531.979,593.495 c -9.143,-1.271 -18.204,-3.257 -27.221,-5.282 v 0 c -18.107,-4.068 -35,-11.207 -50.852,-20.828 v 0 c -14.142,-8.584 -26.571,-19.412 -39.227,-29.944 v 0 c -0.262,-0.218 -0.656,-0.417 -0.73,-0.695 v 0 c -0.134,-0.496 -0.275,-1.195 -0.031,-1.53 v 0 c 0.241,-0.329 1.054,-0.555 1.444,-0.398 v 0 c 0.942,0.379 1.75,1.08 2.676,1.514 v 0 c 0.916,0.43 1.639,1.553 2.981,1.081 v 0 c -0.695,-1.275 -1.308,-2.397 -1.92,-3.52 v 0 c 0.169,-0.196 0.336,-0.393 0.504,-0.589 v 0 c 1.182,0.539 2.401,1.01 3.539,1.63 v 0 c 9.34,5.081 18.667,10.189 27.995,15.293 v 0 c 5.918,3.236 11.822,6.501 17.762,9.697 v 0 c 0.875,0.472 1.763,1.519 3.486,0.336 v 0 c -1.257,-0.808 -2.244,-1.463 -3.248,-2.085 v 0 c -4.956,-3.069 -10.037,-5.952 -14.855,-9.224 v 0 c -20.143,-13.68 -37.173,-30.732 -52.406,-49.569 v 0 c -9.845,-12.174 -19.064,-24.854 -28.57,-37.302 v 0 c -0.605,-0.791 -1.268,-1.537 -1.905,-2.304 v 0 c 0.544,3.239 1.572,6.128 2.725,8.965 v 0 c 7.555,18.582 18.275,35.285 30.403,51.151 v 0 c 0.714,0.935 1.376,1.908 2.063,2.864 v 0 c -0.164,0.152 -0.328,0.305 -0.491,0.457 v 0 c -1.121,-0.592 -2.241,-1.183 -3.46,-1.826 v 0 c -0.265,1.743 1.974,2.648 1.112,4.674 v 0 c -1.663,-1.15 -3.163,-2.157 -4.632,-3.211 v 0 c -14.818,-10.614 -28.875,-22.095 -40.872,-35.928 v 0 C 344.87,471.494 334.882,454.237 329.825,434.321 v 0 c -0.786,-3.094 -1.455,-6.218 -2.1,-9.346 v 0 c -0.538,-2.606 -0.624,-2.736 -3.316,-2.853 v 0 c -0.457,-0.019 -0.915,-0.007 -1.373,0.003 v 0 c -18.408,0.357 -36.814,0.9 -55.225,1.013 v 0 c -13.257,0.081 -26.53,-0.148 -39.774,-0.741 v 0 c -9.002,-0.402 -18.002,-1.394 -26.933,-2.634 v 0 c -9.375,-1.303 -18.72,-2.962 -27.976,-4.938 v 0 c -8.518,-1.817 -16.67,-4.89 -24.253,-9.26 v 0 c -7.397,-4.261 -13.008,-10.091 -15.206,-18.593 v 0 c -0.824,-3.182 -1.668,-6.411 -0.555,-9.778 v 0 c 1.26,-3.823 4.402,-6.069 8.615,-5.924 v 0 c 4.032,0.139 6.264,2.138 7.174,6.458 v 0 c 0.165,0.78 0.321,1.576 0.351,2.369 v 0 c 0.28,7.358 3.984,12.674 9.826,16.795 v 0 c 6.829,4.815 14.383,7.916 22.477,9.809 v 0 c 16.31,3.813 32.904,5.62 49.586,6.107 v 0 c 17.596,0.515 35.209,1.285 52.823,0.234 v 0 c 5.935,-0.354 11.878,-0.55 17.815,-0.843 v 0 c 5.365,-0.265 10.732,-0.518 16.092,-0.874 v 0 c 2.253,-0.149 4.49,-0.551 7.031,-0.875 v 0 c 0,-1.395 0.013,-2.622 -0.003,-3.851 v 0 c -0.156,-11.433 -0.393,-22.868 -0.456,-34.303 v 0 c -0.069,-12.484 0.916,-24.89 3.281,-37.167 v 0 c 2.619,-13.595 7.304,-26.399 14.645,-38.181 v 0 c 0.452,-0.726 1.015,-1.383 2.045,-2.768 v 0 5.631 c 1.245,-0.908 2.168,-1.58 3.723,-2.714 v 0 c -0.408,5.831 -0.825,10.827 -1.094,15.831 v 0 c -0.633,11.757 -1.214,23.518 -1.783,35.278 v 0 c -0.649,13.41 0.069,26.742 2.693,39.925 v 0 c 0.603,3.032 1.033,6.193 3.138,9.598 v 0 c 0,-2.391 0.072,-3.983 -0.012,-5.567 v 0 c -0.697,-13.284 -0.001,-26.502 1.594,-39.7 v 0 c 1.8,-14.895 4.945,-29.494 9.215,-43.861 v 0 c 6.009,-20.219 14.172,-39.57 23.678,-58.374 v 0 c 0.569,-1.123 1.119,-2.255 1.677,-3.383 v 0 c -12.22,13.536 -23.452,27.724 -35.376,41.944 v 0 c -0.617,-1.744 -1.012,-2.86 -1.549,-4.374 v 0 c -1.476,1.994 -2.693,3.641 -3.911,5.287 v 0 c -0.512,-1.131 -0.499,-1.996 -0.337,-2.831 v 0 c 2.174,-11.153 5.933,-21.82 10.308,-32.253 v 0 c 9.197,-21.931 23.451,-40.193 41.284,-55.746 v 0 c 19.504,-17.01 40.084,-32.627 61.664,-46.903 v 0 c 13.199,-8.733 27.069,-16.223 42.206,-21.09 v 0 c 2.687,-0.864 5.561,-1.589 8.355,-1.609 v 0 c 19.557,-0.139 39.115,-0.086 58.673,-0.061 v 0 c 1.709,0.003 3.437,0.129 5.118,0.42 v 0 c 1.121,0.192 2.175,0.778 3.259,1.188 v 0 c -0.069,0.245 -0.137,0.49 -0.206,0.734 v 0 c -0.657,0 -1.319,0.047 -1.971,-0.006 v 0 c -5.125,-0.42 -10.249,-0.859 -15.371,-1.291 v 0 c -1.026,-0.088 -2.108,-0.27 -2.169,1.777 v 0 c 10.677,1.334 21.465,1.271 32.534,2.839 v 0 c -0.807,1.403 -1.321,2.295 -1.825,3.172 v 0 c 3.568,2.434 6.774,2.558 10.204,0.342 v 0 c -1.231,-0.105 -2.295,-0.195 -3.437,-0.293 v 0 c 1.556,-3.342 2.635,-4.127 5.474,-3.527 v 0 c 6.817,1.438 13.608,2.991 20.393,4.569 v 0 c 0.582,0.135 1.04,0.794 1.87,1.46 v 0 c -4.095,1.457 -8.109,0.384 -11.628,2.394 v 0 c 0.939,0.843 1.896,1.447 2.919,1.601 v 0 c 3.836,0.578 7.688,1.07 11.546,1.479 v 0 c 4.827,0.513 9.536,1.431 13.588,4.265 v 0 c 8.23,5.748 17.575,9.252 26.604,13.392 v 0 c 0.238,0.108 0.567,0.014 0.855,0.014 v 0 c -3.111,-2.231 -6.418,-3.982 -9.642,-5.872 v 0 c -3.131,-1.838 -6.653,-3.099 -9.384,-5.553 v 0 c 0.125,-0.305 0.252,-0.609 0.378,-0.913 v 0 c 2.661,0.641 5.322,1.281 7.983,1.924 v 0 c 0.066,-0.149 0.13,-0.299 0.195,-0.448 v 0 c -1.526,-0.972 -3.052,-1.944 -4.579,-2.916 v 0 c 1.13,-0.408 1.998,-0.289 2.837,-0.062 v 0 c 28.546,7.725 52.819,22.591 73.095,44.012 v 0 c 16.232,17.147 28.038,36.882 34.199,59.813 v 0 c 0.346,1.288 0.545,2.619 0.88,4.251 v 0 c -1.33,-0.285 -2.248,-0.483 -3.169,-0.68 v 0 c -0.369,1.453 -0.682,2.69 -1.19,4.691 v 0 c -1.209,-1.503 -1.924,-2.341 -2.583,-3.22 v 0 c -5.843,-7.767 -11.67,-15.547 -17.521,-23.308 v 0 c -0.55,-0.729 -1.244,-1.348 -1.869,-2.018 v 0 c -0.218,0.178 -0.435,0.356 -0.651,0.533 v 0 c 9.447,17.274 18.894,34.547 28.341,51.82 v 0 c 0.224,-0.081 0.448,-0.164 0.672,-0.247 v 0 c -1.217,-5.925 -2.436,-11.849 -3.654,-17.773 v 0 c 0.197,-0.095 0.392,-0.191 0.588,-0.286 v 0 c 1.285,1.15 2.57,2.299 4.224,3.779 v 0 c -0.061,-1.116 -0.144,-1.675 -0.105,-2.224 v 0 c 0.039,-0.579 0.197,-1.151 0.435,-2.445 v 0 c 9.271,13.136 16.873,26.354 22.845,40.503 v 0 c 6.017,14.261 9.761,29.15 11.793,44.625 v 0 c 3.381,0 6.342,0.019 9.301,-0.004 v 0 c 8.705,-0.07 17.36,0.412 25.918,2.126 v 0 c 8.397,1.683 16.825,3.228 25.19,5.057 v 0 c 9.156,2.002 18.297,4.153 26.69,8.548 v 0 c 6.759,3.541 12.935,7.791 16.97,14.534 v 0 c 0.272,0.454 0.787,0.761 1.106,1.06 v 0 c 23.66,-7.649 47.101,-15.327 70.607,-22.8 v 0 c 23.494,-7.472 47.04,-14.789 70.895,-21.117 v 0 c -3.674,1.895 -7.473,3.413 -11.304,4.848 v 0 c -33.812,12.669 -67.625,25.332 -101.448,37.972 v 0 c -7.919,2.96 -15.858,5.874 -23.828,8.692 v 0 c -1.8,0.635 -2.567,1.5 -2.449,3.457 v 0 c 0.086,1.449 -0.193,2.961 -0.558,4.382 v 0 c -0.543,2.108 -1.972,3.625 -3.949,4.481 v 0 c -4.675,2.024 -11.088,0.316 -12.39,-4.45 v 0 c -0.077,-0.283 -0.406,-0.497 -0.719,-0.861 v 0 c -1.732,0.569 -3.443,1.192 -5.192,1.682 v 0 c -1.086,0.304 -2.24,0.609 -3.346,0.554 v 0 c -1.652,-0.082 -3.148,-0.729 -3.808,-2.452 v 0 c -0.614,-1.603 -0.034,-3.088 1.13,-4.037 v 0 c 1.469,-1.201 3.183,-2.156 4.906,-2.973 v 0 c 1.702,-0.806 3.548,-1.309 5.659,-2.062 v 0 c -0.977,-1.747 -1.652,-3.186 -2.534,-4.484 v 0 c -2.793,-4.112 -6.839,-6.686 -11.219,-8.766 v 0 c -8.511,-4.041 -17.486,-6.789 -26.668,-8.688 v 0 c -15.391,-3.185 -31.014,-4.137 -46.708,-3.988 v 0 c -0.746,0.007 -1.49,0.246 -2.522,0.426 v 0 c -0.178,10.231 -1.375,20.205 -3.819,29.979 v 0 c -2.43,9.709 -5.772,19.097 -11.078,27.835 v 0 -5.243 c -1.914,3.309 -3.416,5.907 -4.917,8.503 v 0 c -0.264,-0.067 -0.53,-0.135 -0.795,-0.201 v 0 c 3.644,-20.029 5.606,-40.093 2.193,-60.218 v 0 c -4.348,-0.683 -5.11,-0.201 -5.925,3.456 v 0 c -0.199,0.892 -0.409,1.784 -0.546,2.687 v 0 c -1.294,8.58 -2.451,17.181 -3.88,25.738 v 0 c -3.083,18.437 -8.288,36.265 -15.486,53.531 v 0 c -13.557,32.524 -34.431,59.388 -62.296,80.853 v 0 c -23.467,18.079 -49.78,30.609 -77.952,39.36 v 0 c -9.376,2.912 -18.907,5.324 -28.358,7.992 v 0 c -0.895,0.252 -2.19,-0.03 -2.424,1.791 v 0 c 0.933,-0.091 1.799,-0.095 2.63,-0.265 v 0 c 8.274,-1.707 16.545,-3.44 24.815,-5.165 v 0 c 9.734,-2.03 19.396,-4.313 28.736,-7.796 v 0 c 22.924,-8.549 42.912,-21.834 61.161,-37.922 v 0 c 16.469,-14.518 30.513,-31.21 43.572,-48.777 v 0 c 10.581,-14.236 20.535,-28.89 29.271,-44.347 v 0 c 0.517,-0.915 1.165,-1.755 2.015,-3.02 v 0 c 1.405,3.196 -1.127,5.583 -0.117,8.607 v 0 c 1.287,-2.301 2.394,-4.279 3.5,-6.258 v 0 c 0.479,5.051 -0.327,9.713 -2.038,14.173 v 0 c -9.347,24.37 -22.453,46.485 -39.833,66.007 v 0 c -11.074,12.437 -23.515,23.369 -37,33.107 v 0 c -22.253,16.074 -46.448,28.309 -72.872,35.825 v 0 c -9.426,2.681 -19.111,4.52 -28.75,6.359 v 0 c -10.984,2.094 -21.891,4.582 -33.115,5.442 v 0 c -3.537,0.271 -7.062,0.397 -10.581,0.397 v 0 c -8.142,-10e-4 -16.239,-0.676 -24.299,-1.795 m -81.142,-35.074 c 0.632,0.481 1.24,0.996 1.899,1.437 v 0 c 11.795,7.91 25.049,12.647 38.226,17.544 v 0 c 10.505,3.903 21.129,7.45 32.248,9.15 v 0 c 5.525,0.846 11.097,1.675 16.67,1.843 v 0 c 9.711,0.292 19.442,0.266 29.157,0.02 v 0 c 22.966,-0.582 45.075,-5.373 66.349,-14.049 v 0 c 3.911,-1.595 7.882,-3.053 11.78,-4.679 v 0 c 0.975,-0.408 1.819,-1.132 2.705,-1.753 v 0 c -1.295,0.401 -2.613,0.745 -3.856,1.267 v 0 c -15.895,6.671 -32.478,10.827 -49.463,13.45 v 0 c -13.728,2.12 -27.568,2.085 -41.4,1.534 v 0 c -4.671,-0.185 -9.32,-0.906 -13.978,-1.397 v 0 c -0.447,-0.048 -0.948,-0.106 -1.304,-0.34 v 0 c -0.328,-0.217 -0.685,-0.686 -0.674,-1.034 v 0 c 0.009,-0.343 0.416,-0.901 0.73,-0.963 v 0 c 0.886,-0.177 1.812,-0.19 2.722,-0.191 v 0 c 1.963,-0.004 3.926,0 5.888,0.003 v 0 c 2.841,0.006 5.681,0.011 8.522,-0.004 v 0 c 0.811,-0.005 1.619,-0.232 2.401,-0.682 v 0 c -1.931,-0.74 -3.9,-0.702 -5.86,-0.663 v 0 c -1.136,0.023 -2.27,0.045 -3.39,-0.083 v 0 c -3.117,-0.36 -6.275,-0.592 -9.931,-2.287 v 0 c 1.315,-0.303 1.899,-0.561 2.478,-0.551 v 0 c 16.146,0.247 31.765,-3.325 47.426,-6.551 v 0 c 12.648,-2.606 25.127,-5.877 37.357,-10.055 v 0 c 22.546,-7.7 43.673,-18.128 62.674,-32.65 v 0 c 22.079,-16.876 39.272,-37.855 52.286,-62.315 v 0 c 10.433,-19.609 17.344,-40.476 22.006,-62.149 v 0 c 2.311,-10.749 3.763,-21.608 4.546,-32.553 v 0 c 0.438,-6.131 0.497,-5.701 -5.211,-5.851 v 0 c -17.375,-0.46 -34.757,-0.782 -52.119,-1.547 v 0 c -15.865,-0.699 -31.726,-1.787 -47.365,-4.766 v 0 c -10.109,-1.927 -20.05,-4.537 -29.72,-8.127 v 0 c -6.109,-2.268 -6.934,-1.761 -9.888,3.898 v 0 c -8.407,16.115 -16.923,32.173 -25.387,48.258 v 0 c -0.736,1.397 -1.396,2.834 -2.225,4.526 v 0 c 1.561,1.218 2.987,2.314 4.395,3.431 v 0 c 5.905,4.686 11.985,9.171 17.658,14.123 v 0 c 6.166,5.381 9.868,12.521 12.729,20.084 v 0 c 4.034,10.661 -4.352,20.212 -12.453,21.884 v 0 c -6.494,1.34 -12.745,-0.039 -18.79,-2.297 v 0 c -10.257,-3.832 -17.167,-11.437 -22.568,-20.633 v 0 c -4.468,-7.606 -7.344,-15.737 -7.797,-24.597 v 0 c -0.318,-6.234 0.764,-12.294 2.742,-18.199 v 0 c 0.399,-1.191 0.821,-2.376 1.262,-3.553 v 0 c 1.206,-3.217 0.906,-6.158 -1.067,-9.088 v 0 C 559.66,367.105 544.811,347.985 526.931,331.407 v 0 c -5.106,-4.732 -10.495,-9.193 -16.029,-13.415 v 0 c -5.608,-4.28 -12.008,-7.065 -19.066,-8.053 v 0 c -6.803,-0.952 -13.051,-0.016 -17.631,5.804 v 0 c -2.708,3.438 -4.023,7.523 -4.306,11.762 v 0 c -0.496,7.404 -0.581,14.814 0.463,22.231 v 0 c 1.304,9.242 3.849,18.11 7.579,26.607 v 0 c 4.798,10.928 10.661,21.25 18.553,30.308 v 0 c 4.24,4.869 9.012,9.151 14.67,12.252 v 0 c 2.443,1.339 5.26,2.227 8.015,2.709 v 0 c 3.101,0.545 3.896,-0.296 4.218,-3.412 v 0 c 0.168,-1.635 0.371,-3.156 1.644,-4.357 v 0 c 1.619,-1.524 2.984,-1.5 4.304,0.304 v 0 c 1.497,2.043 1.734,4.502 1.556,6.878 v 0 c -0.757,10.119 -9.038,19.271 -19.003,21.245 v 0 c -3.475,0.687 -6.868,0.201 -10.135,-0.893 v 0 c -3.131,-1.048 -6.212,-2.304 -9.2,-3.715 v 0 c -14.474,-6.83 -29.681,-11.274 -45.45,-13.695 v 0 c -6.644,-1.018 -13.405,-1.401 -20.129,-1.727 v 0 c -17.929,-0.87 -35.867,-1.563 -53.801,-2.3 v 0 c -3.083,-0.128 -6.173,-0.167 -9.26,-0.178 v 0 c -3.232,-0.012 -3.518,0.272 -4.269,3.589 v 0 c -0.068,0.305 -0.253,0.583 -0.569,1.287 v 0 c -1.009,-1.508 -1.853,-2.765 -2.933,-4.377 v 0 c -0.652,1.612 -1.17,2.893 -1.698,4.199 v 0 c -5.779,-3.715 -6.674,-4.175 -9.923,-4.144 v 0 c -3.874,0.038 -7.697,0.488 -11.715,2.2 v 0 c 0.98,4.483 1.726,8.858 2.902,13.113 v 0 c 4.651,16.806 13.196,31.567 24.147,44.998 v 0 c 7.764,9.521 16.587,17.971 26.273,25.525 v 0 c 0.541,0.421 1.083,0.84 1.65,1.227 v 0 c 0.27,0.186 0.598,0.291 1.144,0.285 v 0 c -6.661,-10.855 -13.055,-21.834 -18.146,-33.518 v 0 c -5.057,-11.602 -9.113,-23.503 -11.008,-36.202 v 0 c 0.851,1.096 1.702,2.191 2.556,3.286 v 0 c 0.179,-0.057 0.358,-0.115 0.537,-0.171 v 0 c -0.398,-2.204 -0.796,-4.406 -1.193,-6.61 v 0 c 0.207,-0.095 0.416,-0.188 0.623,-0.284 v 0 c 0.7,0.963 1.427,1.908 2.098,2.888 v 0 c 10.013,14.621 19.73,29.453 30.095,43.818 v 0 c 13.62,18.877 29.068,36.189 46.808,51.348 v 0 c 19.644,16.785 41.845,28.957 66.532,36.598 v 0 c 4.909,1.519 9.796,3.107 14.683,4.695 v 0 c 1.047,0.341 2.048,0.822 3.301,1.331 v 0 c -2.292,0.91 -2.291,0.897 -8.726,-0.226 v 0 c -2.786,-0.485 -5.585,-0.898 -8.38,-1.346 v 0 c -0.07,0.222 -0.14,0.445 -0.21,0.667 v 0 c 1.826,0.691 3.652,1.383 5.478,2.075 v 0 c 0.855,0.324 1.811,0.511 2.523,1.03 v 0 c 0.406,0.296 0.609,1.166 0.53,1.724 v 0 c -0.051,0.356 -0.753,0.778 -1.222,0.874 v 0 c -0.527,0.107 -1.138,-0.062 -1.685,-0.208 v 0 c -13.128,-3.482 -26.437,-6.378 -39.043,-11.602 v 0 c -6.968,-2.888 -13.875,-5.916 -20.817,-8.866 v 0 c -1.004,-0.427 -2.041,-0.773 -3.064,-1.158 v 0 c -0.121,0.206 -0.243,0.41 -0.365,0.614 m 315.465,-98.135 c -6.382,8.646 -12.651,17.376 -19.11,25.965 v 0 c -9.49,12.621 -19.592,24.72 -30.725,35.958 v 0 c -17.491,17.657 -37.665,31.466 -59.95,42.309 v 0 c -2.043,0.994 -4.028,2.104 -6.038,3.167 v 0 c 0.984,-0.176 2.008,-0.255 2.903,-0.637 v 0 c 25.748,-10.964 49.681,-24.817 70.054,-44.283 v 0 c 15.581,-14.885 28.645,-31.695 38.693,-50.8 v 0 c 1.914,-3.642 3.872,-7.262 5.776,-10.909 v 0 c 0.445,-0.851 0.751,-1.773 1.217,-2.893 v 0 c -1.864,0.021 -2.201,1.287 -2.82,2.123 m -170.187,-44.04 c -1.101,12.447 -0.64,24.378 8.116,34.276 v 0 c 2.085,2.356 4.748,4.24 7.294,6.142 v 0 c 3.648,2.724 7.195,1.324 10.478,-0.812 v 0 c 3.194,-2.08 4.351,-5.218 3.628,-8.93 v 0 c -1.07,-5.504 -3.715,-10.286 -7.242,-14.563 v 0 c -5.771,-6.997 -13.271,-11.774 -21.096,-16.101 v 0 c -0.061,-0.034 -0.136,-0.045 -0.242,-0.045 v 0 c -0.185,0 -0.465,0.033 -0.936,0.033 m -196.948,-6.185 c 15.545,0.333 31.043,1.501 46.475,3.489 v 0 c 7.138,0.92 14.29,1.702 21.204,3.84 v 0 c 0.172,0.054 0.412,-0.11 0.998,-0.289 v 0 c -0.599,-1.225 -1.164,-2.415 -1.755,-3.591 v 0 c -4.616,-9.19 -9.591,-18.222 -13.774,-27.605 v 0 c -5.872,-13.174 -9.155,-27.053 -8.769,-41.584 v 0 c 0.21,-7.891 0.977,-15.747 4.479,-23.033 v 0 c 4.043,-8.411 10.723,-13.97 19.423,-16.803 v 0 c 13.781,-4.489 27.292,-3.034 40.344,3.042 v 0 c 10.88,5.067 19.827,12.732 27.543,21.724 v 0 c 13.699,15.964 27.078,32.201 40.587,48.325 v 0 c 1.817,2.168 3.617,4.351 5.675,6.828 v 0 c 0.64,-1.064 1.16,-1.764 1.511,-2.539 v 0 c 4.847,-10.728 9.737,-21.437 14.457,-32.222 v 0 c 1.458,-3.334 2.568,-6.841 3.593,-10.34 v 0 c 1.402,-4.781 0.613,-6.701 -3.814,-8.928 v 0 c -6.021,-3.03 -12.194,-5.76 -18.227,-8.769 v 0 c -8.945,-4.461 -17.259,-9.862 -24.475,-16.862 v 0 c -7.074,-6.861 -11.059,-15.248 -11.098,-25.016 v 0 c -0.039,-10.194 3.944,-18.716 15.031,-24.119 v 0 c 6.581,-3.205 13.591,-3.992 20.748,-2.733 v 0 c 9.398,1.654 18.418,4.483 26.645,9.49 v 0 c 14.472,8.81 23.209,21.682 26.928,38.077 v 0 c 2.131,9.398 1.702,18.854 0.382,28.307 v 0 c -1.022,7.313 -0.418,8.489 6.859,10.368 v 0 c 13.263,3.426 26.501,7.029 39.91,9.776 v 0 c 8.241,1.688 16.76,2.383 25.186,2.717 v 0 c 19.076,0.76 38.171,1.028 57.259,1.471 v 0 c 1.478,0.035 2.991,0.046 4.435,-0.223 v 0 c 2.92,-0.541 3.881,-1.722 4.036,-4.656 v 0 c 0.053,-1.023 -0.028,-2.058 -0.109,-3.083 v 0 c -0.62,-7.862 -1.289,-15.721 -1.855,-23.588 v 0 c -0.122,-1.694 0.011,-3.427 0.24,-5.114 v 0 c 0.105,-0.782 0.72,-1.494 1.439,-2.887 v 0 c 1.209,3.111 2.143,5.515 3.077,7.917 v 0 c 0.168,-0.011 0.338,-0.023 0.506,-0.035 v 0 c 0.11,-1.305 0.219,-2.61 0.34,-4.057 v 0 c 1.888,0.199 1.977,1.444 2.27,2.483 v 0 c 1.577,5.607 3.127,11.221 4.707,16.827 v 0 c 1.419,5.043 2.862,10.079 4.34,15.274 v 0 c 2.805,-0.168 5.475,-0.329 8.102,-0.486 v 0 c 0.934,-14.414 -12.159,-51.43 -23.498,-66.06 v 0 c 0.764,8.046 2.596,15.304 3.036,23.315 v 0 c -2.898,-1.805 -3.042,-4.69 -4.845,-6.458 v 0 c -0.294,0.67 -0.548,1.247 -1.098,2.497 v 0 C 751.419,270.486 732.624,238.33 712.239,207.079 v 0 c 0.194,-0.185 0.387,-0.369 0.582,-0.553 v 0 c 1.299,0.978 2.6,1.954 3.9,2.931 v 0 c 0.178,-0.124 0.354,-0.247 0.53,-0.372 v 0 c -2.122,-3.135 -4.243,-6.269 -6.388,-9.435 v 0 c 1.615,-1.062 2.262,-0.055 2.916,0.633 v 0 c 6.149,6.459 12.434,12.798 18.356,19.459 v 0 c 5.009,5.632 9.586,11.65 14.367,17.487 v 0 c 0.76,0.928 1.583,1.803 2.608,2.482 v 0 c -14.063,-34.878 -38.044,-60.379 -72.363,-76.146 v 0 c 0.454,0.541 0.853,1.144 1.37,1.616 v 0 c 7.175,6.553 14.382,13.077 21.539,19.652 v 0 c 0.831,0.764 2.649,1.399 1.69,2.872 v 0 c -1.104,1.695 -2.389,0.082 -3.554,-0.393 v 0 c -0.497,-0.202 -0.974,-0.454 -1.894,-0.253 v 0 c 1.047,1.258 2.192,2.449 3.113,3.793 v 0 c 0.849,1.239 2.942,2.048 1.643,4.597 v 0 c -1.053,-0.704 -2.013,-1.239 -2.853,-1.92 v 0 c -23.697,-19.185 -50.31,-33.193 -78.605,-44.177 v 0 c -10.699,-4.153 -21.902,-5.312 -33.313,-5.214 v 0 c -11.688,0.101 -23.227,1.624 -34.791,3.091 v 0 c -18.751,2.379 -37.03,6.945 -55.235,11.791 v 0 c -36.354,9.679 -64.409,30.757 -84.422,62.528 v 0 c -12.138,19.271 -22.731,39.405 -32.862,59.79 v 0 c -5.758,11.587 -10.993,23.37 -14.453,35.878 v 0 c -2.532,9.155 -4.683,18.401 -5.33,27.892 v 0 c -1.122,16.417 -2.098,32.848 -2.934,49.283 v 0 c -0.179,3.5 0.331,7.068 0.836,10.56 v 0 c 0.55,3.807 2.277,5.044 6.454,5.052 v 0 c 4.041,0.007 8.084,-0.013 12.127,-0.034 v 0 c 3.466,-0.017 6.932,-0.035 10.398,-0.035 v 0 c 4.499,0 8.998,0.03 13.496,0.127 M 335.983,325.69 c -3.76,12.444 -5.22,25.26 -5.43,38.176 v 0 c -0.241,14.838 0.047,29.685 0.115,44.529 v 0 c 0.003,0.558 0.108,1.116 0.162,1.628 v 0 c 2.445,0.794 11.273,0.983 16.741,0.333 v 0 c -0.344,-1.318 -0.651,-2.598 -1.012,-3.863 v 0 c -3.685,-12.884 -5.635,-26.023 -6.509,-39.4 v 0 c -1.014,-15.526 -0.491,-31.042 -0.529,-46.564 v 0 c -0.002,-0.972 -0.081,-1.944 -0.124,-2.918 v 0 c -0.226,-0.049 -0.452,-0.099 -0.677,-0.149 v 0 c -0.916,2.742 -1.901,5.462 -2.737,8.228 m 451.916,74.693 c 0.002,0.481 0.367,0.961 0.77,1.955 v 0 c 1.599,-2.945 7.09,-33.668 7.258,-39.606 v 0 h -8.054 c 0,12.637 -0.005,25.144 0.026,37.651 m 95.952,-5.869 c 2.522,0.881 4.547,0.844 6.989,0.243 v 0 c -0.163,-1.358 -0.316,-2.634 -0.52,-4.333 v 0 c -2.72,0.835 -4.797,1.674 -6.469,4.09 m 24.007,-4.4 c 1.276,-0.932 2.227,-1.627 3.179,-2.322 v 0 c -0.051,-0.333 -0.1,-0.667 -0.151,-1 v 0 c -1.209,-0.243 -2.419,-0.487 -4.34,-0.873 v 0 c 0.528,1.692 0.862,2.758 1.312,4.195 M 776.047,337.568 c -0.03,3.31 0.12,6.626 -0.03,9.928 v 0 c -0.132,2.869 1.047,4.52 3.805,5.147 v 0 c 0.52,-2.68 -1.751,-15.004 -3.379,-17.541 v 0 c -0.171,1.024 -0.389,1.745 -0.396,2.466 m -224.35,-51.402 c 2.925,8.533 8.747,14.898 16.009,20.01 v 0 c 8.918,6.281 18.826,10.763 28.581,15.516 v 0 c 2.652,1.294 5.329,2.538 8.169,3.887 v 0 c 0.422,-0.902 0.841,-1.568 1.058,-2.292 v 0 c 5.551,-18.573 2.601,-35.702 -9.069,-51.17 v 0 c -6.126,-8.121 -14.456,-12.433 -24.689,-12.824 v 0 c -0.3,-0.012 -0.597,-0.017 -0.893,-0.017 v 0 c -14.264,0 -23.861,13.189 -19.166,26.89 M 427.99,181.094 c -13.225,10.042 -25.878,20.73 -37.157,32.966 v 0 c -14.854,16.113 -26.143,34.32 -32.487,55.423 v 0 c -0.124,0.411 -0.163,0.847 -0.241,1.272 v 0 c 0.177,0.109 0.353,0.219 0.529,0.329 v 0 c 26.464,-32.119 52.929,-64.237 79.393,-96.354 v 0 c -0.185,-0.203 -0.369,-0.404 -0.553,-0.607 v 0 c -3.164,2.321 -6.361,4.599 -9.484,6.971 m 111.696,-45.739 c -16.915,0.758 -33.29,4.077 -49.164,9.876 v 0 c -10.131,3.702 -19.82,8.343 -28.249,15.19 v 0 c -3.173,2.577 -5.946,5.656 -8.831,8.574 v 0 c -0.668,0.676 -1.056,1.631 -1.198,2.883 v 0 c 0.676,-0.295 1.38,-0.534 2.022,-0.889 v 0 c 20.07,-11.043 41.446,-18.455 63.798,-23.297 v 0 c 15.425,-3.341 30.997,-5.583 46.69,-7.102 v 0 c 3.225,-0.312 6.437,-0.746 9.656,-1.123 v 0 c 0.027,-0.183 0.052,-0.364 0.079,-0.547 v 0 c -2.169,-0.538 -4.319,-1.166 -6.509,-1.6 v 0 c -7.36,-1.457 -14.767,-2.103 -22.238,-2.103 v 0 c -2.014,0 -4.033,0.047 -6.056,0.138"
               style="fill:url(#linearGradient40);stroke:none"
               id="path42" /></g></g></g></g><g
       id="g44"><g
         id="g46"><g
           id="g52"><g
             id="g54"><path
               d="m 396.17,93.936 c 2.102,-13.346 3.045,-26.25 1.394,-39.212 v 0 c 0.848,-0.359 1.354,-0.754 1.865,-0.762 v 0 c 9.846,-0.155 19.695,-0.324 29.542,-0.338 v 0 c 2.307,-0.004 4.286,0.958 4.975,4.074 v 0 c -1.684,-0.225 -2.963,-0.522 -4.248,-0.547 v 0 C 422.704,57.01 415.697,56.67 408.716,56.943 v 0 c -4.036,0.157 -5.041,1.535 -5.405,5.791 v 0 c -0.34,3.949 -0.295,7.93 -0.383,11.897 v 0 c -0.043,2.009 -0.008,4.02 -0.008,6.452 v 0 c 3.374,0.337 6.344,0.823 9.321,0.884 v 0 c 4.733,0.099 9.475,-0.08 14.211,-0.157 v 0 c 2.109,-0.035 4.255,-0.184 5.204,3.052 v 0 c -3.13,0.048 -6.256,-0.184 -9.379,-0.415 v 0 c -6.481,-0.48 -12.951,-0.959 -19.42,1.058 v 0 c 0.1,1.955 0.185,3.607 0.293,5.702 v 0 c 1.631,0.116 2.568,0.256 3.5,0.235 v 0 c 3.961,-0.088 7.922,-0.322 11.882,-0.315 v 0 c 4.01,0.005 4.23,0.241 5.566,3.636 v 0 c -7.218,-1.212 -14.355,-0.814 -21.493,0.188 v 0 c -1.084,0.152 -2.199,0.374 -3.24,0.374 v 0 c -1.223,0 -2.345,-0.306 -3.195,-1.389"
               style="fill:url(#linearGradient74);stroke:none"
               id="path76" /></g></g></g></g><g
       id="g78"><g
         id="g80"><g
           id="g86"><g
             id="g88"><path
               d="m 718.532,94.496 c 2.498,-13.712 3.163,-26.784 1.661,-39.738 v 0 c 0.735,-0.381 1.064,-0.696 1.398,-0.702 v 0 c 10.035,-0.176 20.072,-0.387 30.108,-0.416 v 0 c 2.25,-0.008 4.139,1.063 4.622,3.282 v 0 c -7.635,-0.074 -14.991,-0.235 -22.343,-0.155 v 0 c -2.029,0.02 -4.121,0.57 -6.043,1.269 v 0 c -0.858,0.313 -1.925,1.582 -1.945,2.439 v 0 c -0.16,6.732 -0.09,13.47 -0.09,20.647 v 0 c 3.152,0.309 6.134,0.788 9.125,0.849 v 0 c 4.734,0.096 9.476,-0.087 14.213,-0.155 v 0 c 2.084,-0.028 4.202,-0.119 4.77,2.98 v 0 c -3.14,0.061 -6.27,-0.166 -9.391,-0.394 v 0 c -6.365,-0.464 -12.693,-0.929 -18.991,1.06 v 0 5.492 c 1.58,0.191 2.874,0.491 4.164,0.477 v 0 c 3.775,-0.047 7.548,-0.275 11.323,-0.321 v 0 c 2.634,-0.033 5.169,0.277 6.354,3.894 v 0 c -8.037,-1.534 -15.524,-0.94 -23.033,-0.008 v 0 c -0.328,0.041 -0.659,0.058 -0.993,0.058 v 0 c -1.595,0 -3.248,-0.399 -4.909,-0.558"
               style="fill:url(#linearGradient108);stroke:none"
               id="path110" /></g></g></g></g><g
       id="g112"><g
         id="g114"><g
           id="g120"><g
             id="g122"><path
               d="m 466.072,91.381 c 4.417,-4.936 8.087,-9.223 11.976,-13.3 v 0 c 1.912,-2.006 2.213,-3.84 0.55,-5.999 v 0 c -4.024,-5.229 -8.069,-10.444 -12.09,-15.675 v 0 c -0.485,-0.63 -0.888,-1.322 -1.587,-2.374 v 0 c 3.294,-0.694 4.91,0.845 6.259,2.684 v 0 c 2.899,3.953 5.666,8 8.552,11.962 v 0 c 0.927,1.272 2.054,2.398 3.302,3.835 v 0 c 3.002,-3.616 5.456,-6.736 8.09,-9.696 v 0 c 2.494,-2.805 4.966,-5.696 7.832,-8.091 v 0 c 3.376,-2.822 4.785,-2.115 6.768,3.065 v 0 c -9.378,3.452 -13.966,11.976 -20.47,19.532 v 0 c 4.004,5.768 7.956,11.463 11.91,17.16 v 0 C 489.171,92.418 488.085,84.451 483.02,79.277 v 0 c -5.476,3.769 -6.604,11.18 -12.531,15.256 v 0 c -1.109,-0.793 -2.386,-1.703 -4.417,-3.152"
               style="fill:url(#linearGradient142);stroke:none"
               id="path144" /></g></g></g></g><g
       id="g146"><g
         id="g148"><g
           id="g154"><g
             id="g156"><path
               d="m 796.377,88.129 c -5.401,-6.35 -1.679,-11.632 4.383,-13.313 v 0 c 2.708,-0.75 5.653,-0.614 8.402,-1.254 v 0 c 2.7,-0.63 5.351,-1.593 7.893,-2.71 v 0 c 0.877,-0.386 1.716,-1.581 1.958,-2.557 v 0 c 0.894,-3.623 -3.348,-11.046 -7.088,-11.922 v 0 C 804.183,54.56 796.892,55.21 791.087,61.55 v 0 c -0.217,0.238 -0.667,0.261 -1.388,0.523 v 0 c -0.739,-1.098 -1.526,-2.269 -2.686,-3.996 v 0 c 0.87,-0.549 1.494,-0.981 2.151,-1.355 v 0 c 6.701,-3.813 13.995,-4.802 21.391,-3.44 v 0 c 4.91,0.902 9.086,3.8 11.915,8.115 v 0 c 5.468,8.337 2.315,14.585 -7.588,15.72 v 0 c -4.443,0.511 -8.943,1.335 -13.158,2.776 v 0 c -3.771,1.288 -4.188,3.748 -2.133,7.156 v 0 c 2.942,4.88 8.774,7.191 14.213,5.284 v 0 c 2.293,-0.803 4.226,-1.669 6.066,1.414 v 0 c -2.357,0.994 -4.905,1.459 -7.462,1.459 v 0 c -6.105,0 -12.267,-2.65 -16.031,-7.077"
               style="fill:url(#linearGradient176);stroke:none"
               id="path178" /></g></g></g></g><g
       id="g180"><g
         id="g182"><g
           id="g188"><g
             id="g190"><path
               d="m 319.747,90.979 c 7.097,0.516 13.094,1.325 19.16,-0.794 v 0 -36.886 c 5,1.312 5.242,1.75 5.033,5.588 v 0 c -0.315,5.804 -0.616,11.618 -0.599,17.429 v 0 c 0.013,4.47 0.524,8.937 0.861,14.145 v 0 c 3.654,-0.19 6.807,-0.313 9.954,-0.529 v 0 c 3.147,-0.215 5.874,0.352 8.174,4.132 v 0 c -10.391,-1.998 -19.894,-0.769 -29.394,0.712 v 0 c -2.233,0.349 -4.504,0.471 -6.76,0.665 v 0 c -0.22,0.018 -0.433,0.028 -0.642,0.028 v 0 c -2.401,0 -4.097,-1.282 -5.787,-4.49"
               style="fill:url(#linearGradient210);stroke:none"
               id="path212" /></g></g></g></g><g
       id="g214"><g
         id="g216"><g
           id="g222"><g
             id="g224"><path
               d="m 533.468,91.002 h 18.929 V 53.195 c 4.714,1.653 4.902,1.757 4.86,4.441 v 0 c -0.089,5.467 -0.408,10.93 -0.39,16.396 v 0 c 0.016,5.237 0.338,10.474 0.552,16.459 v 0 c 3.964,-0.216 7.299,-0.437 10.636,-0.568 v 0 c 3.959,-0.154 5.115,0.524 6.88,3.982 v 0 c -7.801,-0.949 -15.455,-1.524 -23.153,0.186 v 0 c -3.851,0.857 -7.881,0.921 -11.833,1.322 v 0 c -0.324,0.033 -0.639,0.051 -0.944,0.051 v 0 c -2.442,0 -4.28,-1.119 -5.537,-4.462"
               style="fill:url(#linearGradient244);stroke:none"
               id="path246" /></g></g></g></g><g
       id="g248"><g
         id="g250"><g
           id="g256"><g
             id="g258"><path
               d="m 653.213,93.467 c 1.946,-13.629 2.573,-26.551 -0.564,-40.015 v 0 c 8.658,0 16.935,-0.049 25.209,0.04 v 0 c 1.663,0.018 3.429,0.297 4.934,0.951 v 0 c 0.843,0.366 1.247,1.746 2.414,3.538 v 0 c -9.304,-2.504 -17.483,-1.619 -26.155,-1.164 v 0 38.969 c -2.497,-0.991 -4.228,-1.679 -5.838,-2.319"
               style="fill:url(#linearGradient278);stroke:none"
               id="path280" /></g></g></g></g><g
       id="g282"><g
         id="g284"><g
           id="g290"><g
             id="g292"><path
               d="m 609.206,92.507 c 0.075,-13.031 2.389,-25.842 -0.521,-39.325 v 0 c 5.938,2.252 5.979,2.372 5.987,6.631 v 0 c 0.014,7.366 0.108,14.731 0.148,22.097 v 0 c 0.022,4.244 0.003,8.491 0.003,13.383 v 0 c -2.224,-1.104 -3.845,-1.906 -5.617,-2.786"
               style="fill:url(#linearGradient312);stroke:none"
               id="path314" /></g></g></g></g><g
       id="g316"><g
         id="g318"><g
           id="g324"><g
             id="g326"><path
               d="m 466.768,152.043 c 7.153,-5.485 14.822,-9.982 23.51,-12.53 v 0 c 0.137,0.266 0.277,0.531 0.415,0.796 v 0 c -7.862,4.128 -15.723,8.258 -23.585,12.386 v 0 c -0.113,-0.218 -0.227,-0.434 -0.34,-0.652"
               style="fill:url(#linearGradient346);stroke:none"
               id="path348" /></g></g></g></g></g></svg>
